G04 #@! TF.FileFunction,Legend,Top*
%FSLAX46Y46*%
G04 Gerber Fmt 4.6, Leading zero omitted, Abs format (unit mm)*
G04 Created by KiCad (PCBNEW 4.0.4-stable) date 11/06/17 01:13:56*
%MOMM*%
%LPD*%
G01*
G04 APERTURE LIST*
%ADD10C,0.100000*%
%ADD11C,0.150000*%
%ADD12C,0.120000*%
%ADD13C,0.050000*%
G04 APERTURE END LIST*
D10*
D11*
X143259524Y-79286667D02*
X143735715Y-79286667D01*
X143164286Y-79572381D02*
X143497619Y-78572381D01*
X143830953Y-79572381D01*
X144021429Y-78572381D02*
X144354762Y-79572381D01*
X144688096Y-78572381D01*
X145021429Y-79572381D02*
X145021429Y-78572381D01*
X145259524Y-78572381D01*
X145402382Y-78620000D01*
X145497620Y-78715238D01*
X145545239Y-78810476D01*
X145592858Y-79000952D01*
X145592858Y-79143810D01*
X145545239Y-79334286D01*
X145497620Y-79429524D01*
X145402382Y-79524762D01*
X145259524Y-79572381D01*
X145021429Y-79572381D01*
X146021429Y-79572381D02*
X146021429Y-78572381D01*
X146259524Y-78572381D01*
X146402382Y-78620000D01*
X146497620Y-78715238D01*
X146545239Y-78810476D01*
X146592858Y-79000952D01*
X146592858Y-79143810D01*
X146545239Y-79334286D01*
X146497620Y-79429524D01*
X146402382Y-79524762D01*
X146259524Y-79572381D01*
X146021429Y-79572381D01*
X147021429Y-79191429D02*
X147783334Y-79191429D01*
X148735715Y-78572381D02*
X148259524Y-78572381D01*
X148211905Y-79048571D01*
X148259524Y-79000952D01*
X148354762Y-78953333D01*
X148592858Y-78953333D01*
X148688096Y-79000952D01*
X148735715Y-79048571D01*
X148783334Y-79143810D01*
X148783334Y-79381905D01*
X148735715Y-79477143D01*
X148688096Y-79524762D01*
X148592858Y-79572381D01*
X148354762Y-79572381D01*
X148259524Y-79524762D01*
X148211905Y-79477143D01*
X149069048Y-78572381D02*
X149402381Y-79572381D01*
X149735715Y-78572381D01*
X148763333Y-82678095D02*
X148763333Y-83154286D01*
X148477619Y-82582857D02*
X149477619Y-82916190D01*
X148477619Y-83249524D01*
X149430000Y-84106667D02*
X149477619Y-84011429D01*
X149477619Y-83868572D01*
X149430000Y-83725714D01*
X149334762Y-83630476D01*
X149239524Y-83582857D01*
X149049048Y-83535238D01*
X148906190Y-83535238D01*
X148715714Y-83582857D01*
X148620476Y-83630476D01*
X148525238Y-83725714D01*
X148477619Y-83868572D01*
X148477619Y-83963810D01*
X148525238Y-84106667D01*
X148572857Y-84154286D01*
X148906190Y-84154286D01*
X148906190Y-83963810D01*
X148477619Y-84582857D02*
X149477619Y-84582857D01*
X148477619Y-85154286D01*
X149477619Y-85154286D01*
X148477619Y-85630476D02*
X149477619Y-85630476D01*
X149477619Y-85868571D01*
X149430000Y-86011429D01*
X149334762Y-86106667D01*
X149239524Y-86154286D01*
X149049048Y-86201905D01*
X148906190Y-86201905D01*
X148715714Y-86154286D01*
X148620476Y-86106667D01*
X148525238Y-86011429D01*
X148477619Y-85868571D01*
X148477619Y-85630476D01*
X148527619Y-88026190D02*
X147527619Y-88359523D01*
X148527619Y-88692857D01*
X147527619Y-89169047D02*
X147575238Y-89073809D01*
X147622857Y-89026190D01*
X147718095Y-88978571D01*
X148003810Y-88978571D01*
X148099048Y-89026190D01*
X148146667Y-89073809D01*
X148194286Y-89169047D01*
X148194286Y-89311905D01*
X148146667Y-89407143D01*
X148099048Y-89454762D01*
X148003810Y-89502381D01*
X147718095Y-89502381D01*
X147622857Y-89454762D01*
X147575238Y-89407143D01*
X147527619Y-89311905D01*
X147527619Y-89169047D01*
X148194286Y-90359524D02*
X147527619Y-90359524D01*
X148194286Y-89930952D02*
X147670476Y-89930952D01*
X147575238Y-89978571D01*
X147527619Y-90073809D01*
X147527619Y-90216667D01*
X147575238Y-90311905D01*
X147622857Y-90359524D01*
X148194286Y-90692857D02*
X148194286Y-91073809D01*
X148527619Y-90835714D02*
X147670476Y-90835714D01*
X147575238Y-90883333D01*
X147527619Y-90978571D01*
X147527619Y-91073809D01*
X142588572Y-92122381D02*
X142255238Y-91646190D01*
X142017143Y-92122381D02*
X142017143Y-91122381D01*
X142398096Y-91122381D01*
X142493334Y-91170000D01*
X142540953Y-91217619D01*
X142588572Y-91312857D01*
X142588572Y-91455714D01*
X142540953Y-91550952D01*
X142493334Y-91598571D01*
X142398096Y-91646190D01*
X142017143Y-91646190D01*
X143017143Y-91598571D02*
X143350477Y-91598571D01*
X143493334Y-92122381D02*
X143017143Y-92122381D01*
X143017143Y-91122381D01*
X143493334Y-91122381D01*
X144255239Y-91598571D02*
X143921905Y-91598571D01*
X143921905Y-92122381D02*
X143921905Y-91122381D01*
X144398096Y-91122381D01*
X126877143Y-89012381D02*
X126877143Y-88012381D01*
X127353333Y-89012381D02*
X127353333Y-88012381D01*
X127924762Y-89012381D01*
X127924762Y-88012381D01*
X128400952Y-88631429D02*
X129162857Y-88631429D01*
X128781905Y-89012381D02*
X128781905Y-88250476D01*
X126857143Y-81282381D02*
X126857143Y-80282381D01*
X127333333Y-81282381D02*
X127333333Y-80282381D01*
X127904762Y-81282381D01*
X127904762Y-80282381D01*
X128380952Y-80901429D02*
X129142857Y-80901429D01*
D12*
X131900000Y-85540000D02*
X131900000Y-86040000D01*
X132960000Y-86040000D02*
X132960000Y-85540000D01*
X133040000Y-83890000D02*
X133040000Y-83390000D01*
X131980000Y-83390000D02*
X131980000Y-83890000D01*
X141900000Y-88210000D02*
X141900000Y-90870000D01*
X144500000Y-88210000D02*
X141900000Y-88210000D01*
X144500000Y-90870000D02*
X141900000Y-90870000D01*
X144500000Y-88210000D02*
X144500000Y-90870000D01*
X145770000Y-88210000D02*
X147100000Y-88210000D01*
X147100000Y-88210000D02*
X147100000Y-89540000D01*
X147750000Y-80330000D02*
X145090000Y-80330000D01*
X147750000Y-82930000D02*
X147750000Y-80330000D01*
X145090000Y-82930000D02*
X145090000Y-80330000D01*
X147750000Y-82930000D02*
X145090000Y-82930000D01*
X147750000Y-84200000D02*
X147750000Y-85530000D01*
X147750000Y-85530000D02*
X146420000Y-85530000D01*
X126750000Y-87220000D02*
X129410000Y-87220000D01*
X126750000Y-84620000D02*
X126750000Y-87220000D01*
X129410000Y-84620000D02*
X129410000Y-87220000D01*
X126750000Y-84620000D02*
X129410000Y-84620000D01*
X126750000Y-83350000D02*
X126750000Y-82020000D01*
X126750000Y-82020000D02*
X128080000Y-82020000D01*
X136150000Y-78880000D02*
X136150000Y-80600000D01*
X136150000Y-80600000D02*
X139870000Y-80600000D01*
X139870000Y-80600000D02*
X139870000Y-78880000D01*
X139870000Y-78880000D02*
X136150000Y-78880000D01*
X135080000Y-79740000D02*
X136150000Y-79740000D01*
X140940000Y-79740000D02*
X139870000Y-79740000D01*
X138190000Y-79130000D02*
X137690000Y-79130000D01*
X137690000Y-80190000D02*
X138190000Y-80190000D01*
X138140000Y-89240000D02*
X137640000Y-89240000D01*
X137640000Y-90180000D02*
X138140000Y-90180000D01*
D11*
X131672381Y-85986666D02*
X131196190Y-86320000D01*
X131672381Y-86558095D02*
X130672381Y-86558095D01*
X130672381Y-86177142D01*
X130720000Y-86081904D01*
X130767619Y-86034285D01*
X130862857Y-85986666D01*
X131005714Y-85986666D01*
X131100952Y-86034285D01*
X131148571Y-86081904D01*
X131196190Y-86177142D01*
X131196190Y-86558095D01*
X130672381Y-85653333D02*
X130672381Y-85034285D01*
X131053333Y-85367619D01*
X131053333Y-85224761D01*
X131100952Y-85129523D01*
X131148571Y-85081904D01*
X131243810Y-85034285D01*
X131481905Y-85034285D01*
X131577143Y-85081904D01*
X131624762Y-85129523D01*
X131672381Y-85224761D01*
X131672381Y-85510476D01*
X131624762Y-85605714D01*
X131577143Y-85653333D01*
X131782381Y-83766666D02*
X131306190Y-84100000D01*
X131782381Y-84338095D02*
X130782381Y-84338095D01*
X130782381Y-83957142D01*
X130830000Y-83861904D01*
X130877619Y-83814285D01*
X130972857Y-83766666D01*
X131115714Y-83766666D01*
X131210952Y-83814285D01*
X131258571Y-83861904D01*
X131306190Y-83957142D01*
X131306190Y-84338095D01*
X131782381Y-82814285D02*
X131782381Y-83385714D01*
X131782381Y-83100000D02*
X130782381Y-83100000D01*
X130925238Y-83195238D01*
X131020476Y-83290476D01*
X131068095Y-83385714D01*
X136968095Y-84152381D02*
X136968095Y-84961905D01*
X137015714Y-85057143D01*
X137063333Y-85104762D01*
X137158571Y-85152381D01*
X137349048Y-85152381D01*
X137444286Y-85104762D01*
X137491905Y-85057143D01*
X137539524Y-84961905D01*
X137539524Y-84152381D01*
X138539524Y-85152381D02*
X137968095Y-85152381D01*
X138253809Y-85152381D02*
X138253809Y-84152381D01*
X138158571Y-84295238D01*
X138063333Y-84390476D01*
X137968095Y-84438095D01*
D13*
X136896190Y-79883333D02*
X136658095Y-80050000D01*
X136896190Y-80169047D02*
X136396190Y-80169047D01*
X136396190Y-79978571D01*
X136420000Y-79930952D01*
X136443810Y-79907143D01*
X136491429Y-79883333D01*
X136562857Y-79883333D01*
X136610476Y-79907143D01*
X136634286Y-79930952D01*
X136658095Y-79978571D01*
X136658095Y-80169047D01*
X136443810Y-79692857D02*
X136420000Y-79669047D01*
X136396190Y-79621428D01*
X136396190Y-79502381D01*
X136420000Y-79454762D01*
X136443810Y-79430952D01*
X136491429Y-79407143D01*
X136539048Y-79407143D01*
X136610476Y-79430952D01*
X136896190Y-79716666D01*
X136896190Y-79407143D01*
D11*
X134373334Y-78372381D02*
X134040000Y-77896190D01*
X133801905Y-78372381D02*
X133801905Y-77372381D01*
X134182858Y-77372381D01*
X134278096Y-77420000D01*
X134325715Y-77467619D01*
X134373334Y-77562857D01*
X134373334Y-77705714D01*
X134325715Y-77800952D01*
X134278096Y-77848571D01*
X134182858Y-77896190D01*
X133801905Y-77896190D01*
X135230477Y-77705714D02*
X135230477Y-78372381D01*
X134992381Y-77324762D02*
X134754286Y-78039048D01*
X135373334Y-78039048D01*
X137723334Y-88797143D02*
X137675715Y-88844762D01*
X137532858Y-88892381D01*
X137437620Y-88892381D01*
X137294762Y-88844762D01*
X137199524Y-88749524D01*
X137151905Y-88654286D01*
X137104286Y-88463810D01*
X137104286Y-88320952D01*
X137151905Y-88130476D01*
X137199524Y-88035238D01*
X137294762Y-87940000D01*
X137437620Y-87892381D01*
X137532858Y-87892381D01*
X137675715Y-87940000D01*
X137723334Y-87987619D01*
X138675715Y-88892381D02*
X138104286Y-88892381D01*
X138390000Y-88892381D02*
X138390000Y-87892381D01*
X138294762Y-88035238D01*
X138199524Y-88130476D01*
X138104286Y-88178095D01*
M02*
