G04 #@! TF.FileFunction,Copper,L1,Top,Signal*
%FSLAX46Y46*%
G04 Gerber Fmt 4.6, Leading zero omitted, Abs format (unit mm)*
G04 Created by KiCad (PCBNEW 4.0.4-stable) date 11/06/17 01:13:56*
%MOMM*%
%LPD*%
G01*
G04 APERTURE LIST*
%ADD10C,0.100000*%
%ADD11R,0.600000X0.400000*%
%ADD12R,1.700000X1.700000*%
%ADD13O,1.700000X1.700000*%
%ADD14R,1.550000X0.600000*%
%ADD15C,1.400000*%
%ADD16O,1.400000X1.400000*%
%ADD17R,0.400000X0.600000*%
%ADD18R,0.600000X0.500000*%
%ADD19C,0.600000*%
%ADD20C,0.250000*%
%ADD21C,0.254000*%
G04 APERTURE END LIST*
D10*
D11*
X132430000Y-86240000D03*
X132430000Y-85340000D03*
X132510000Y-83190000D03*
X132510000Y-84090000D03*
D12*
X145770000Y-89540000D03*
D13*
X143230000Y-89540000D03*
D12*
X146420000Y-84200000D03*
D13*
X146420000Y-81660000D03*
D12*
X128080000Y-83350000D03*
D13*
X128080000Y-85890000D03*
D14*
X135010000Y-85355000D03*
X135010000Y-82815000D03*
X135010000Y-84085000D03*
X135010000Y-86625000D03*
X140410000Y-86625000D03*
X140410000Y-85355000D03*
X140410000Y-84085000D03*
X140410000Y-82815000D03*
D15*
X134200000Y-79740000D03*
D16*
X141820000Y-79740000D03*
D17*
X137490000Y-79660000D03*
X138390000Y-79660000D03*
D18*
X137340000Y-89710000D03*
X138440000Y-89710000D03*
D19*
X131420000Y-81300000D03*
D20*
X137340000Y-89710000D02*
X137340000Y-90960000D01*
X148670000Y-86450000D02*
X146420000Y-84200000D01*
X148670000Y-90440000D02*
X148670000Y-86450000D01*
X147360000Y-91750000D02*
X148670000Y-90440000D01*
X138130000Y-91750000D02*
X147360000Y-91750000D01*
X137340000Y-90960000D02*
X138130000Y-91750000D01*
X132510000Y-83190000D02*
X132510000Y-82390000D01*
X132510000Y-82390000D02*
X131420000Y-81300000D01*
X135010000Y-86625000D02*
X132815000Y-86625000D01*
X132815000Y-86625000D02*
X132430000Y-86240000D01*
X137340000Y-89710000D02*
X137340000Y-88200000D01*
X137340000Y-88200000D02*
X135765000Y-86625000D01*
X135765000Y-86625000D02*
X135010000Y-86625000D01*
X146420000Y-81660000D02*
X145020000Y-81660000D01*
X142595000Y-84085000D02*
X140410000Y-84085000D01*
X145020000Y-81660000D02*
X142595000Y-84085000D01*
X140410000Y-84085000D02*
X139615000Y-84085000D01*
X138440000Y-85260000D02*
X138440000Y-89710000D01*
X139615000Y-84085000D02*
X138440000Y-85260000D01*
X132510000Y-84090000D02*
X133020000Y-84090000D01*
X133020000Y-84090000D02*
X133015000Y-84085000D01*
X135010000Y-84085000D02*
X133015000Y-84085000D01*
X133015000Y-84085000D02*
X131125000Y-84085000D01*
X130390000Y-83350000D02*
X128080000Y-83350000D01*
X131125000Y-84085000D02*
X130390000Y-83350000D01*
X132430000Y-85340000D02*
X134995000Y-85340000D01*
X134995000Y-85340000D02*
X135010000Y-85355000D01*
X132430000Y-85340000D02*
X132180000Y-85340000D01*
X132180000Y-85340000D02*
X132165000Y-85355000D01*
X132165000Y-85355000D02*
X132430000Y-85340000D01*
X128080000Y-85890000D02*
X130620000Y-85890000D01*
X131155000Y-85355000D02*
X135010000Y-85355000D01*
X130620000Y-85890000D02*
X131155000Y-85355000D01*
X145770000Y-89540000D02*
X145770000Y-87330000D01*
X143795000Y-85355000D02*
X140410000Y-85355000D01*
X145770000Y-87330000D02*
X143795000Y-85355000D01*
X140410000Y-86625000D02*
X141795000Y-86625000D01*
X143230000Y-88060000D02*
X143230000Y-89540000D01*
X141795000Y-86625000D02*
X143230000Y-88060000D01*
X135010000Y-82815000D02*
X135010000Y-80550000D01*
X135010000Y-80550000D02*
X134200000Y-79740000D01*
X135010000Y-82815000D02*
X136375000Y-82815000D01*
X137490000Y-81700000D02*
X137490000Y-79660000D01*
X136375000Y-82815000D02*
X137490000Y-81700000D01*
X141820000Y-79740000D02*
X141820000Y-80140000D01*
X141820000Y-80140000D02*
X140410000Y-81550000D01*
X140410000Y-81550000D02*
X140410000Y-82815000D01*
X140410000Y-82815000D02*
X139315000Y-82815000D01*
X138390000Y-81890000D02*
X138390000Y-79660000D01*
X139315000Y-82815000D02*
X138390000Y-81890000D01*
D21*
G36*
X150030000Y-91740000D02*
X126830000Y-91740000D01*
X126830000Y-89993750D01*
X136405000Y-89993750D01*
X136405000Y-90086310D01*
X136501673Y-90319699D01*
X136680302Y-90498327D01*
X136913691Y-90595000D01*
X137054250Y-90595000D01*
X137213000Y-90436250D01*
X137213000Y-89835000D01*
X136563750Y-89835000D01*
X136405000Y-89993750D01*
X126830000Y-89993750D01*
X126830000Y-89333690D01*
X136405000Y-89333690D01*
X136405000Y-89426250D01*
X136563750Y-89585000D01*
X137213000Y-89585000D01*
X137213000Y-88983750D01*
X137054250Y-88825000D01*
X136913691Y-88825000D01*
X136680302Y-88921673D01*
X136501673Y-89100301D01*
X136405000Y-89333690D01*
X126830000Y-89333690D01*
X126830000Y-86684354D01*
X127000853Y-86940054D01*
X127482622Y-87261961D01*
X128050907Y-87375000D01*
X128109093Y-87375000D01*
X128677378Y-87261961D01*
X129159147Y-86940054D01*
X129352954Y-86650000D01*
X130620000Y-86650000D01*
X130910839Y-86592148D01*
X131050619Y-86498750D01*
X131495000Y-86498750D01*
X131495000Y-86566309D01*
X131591673Y-86799698D01*
X131770301Y-86978327D01*
X132003690Y-87075000D01*
X132144250Y-87075000D01*
X132303000Y-86916250D01*
X132303000Y-86340000D01*
X132557000Y-86340000D01*
X132557000Y-86916250D01*
X132715750Y-87075000D01*
X132856310Y-87075000D01*
X133089699Y-86978327D01*
X133157275Y-86910750D01*
X133600000Y-86910750D01*
X133600000Y-87051310D01*
X133696673Y-87284699D01*
X133875302Y-87463327D01*
X134108691Y-87560000D01*
X134724250Y-87560000D01*
X134883000Y-87401250D01*
X134883000Y-86752000D01*
X135137000Y-86752000D01*
X135137000Y-87401250D01*
X135295750Y-87560000D01*
X135911309Y-87560000D01*
X136144698Y-87463327D01*
X136323327Y-87284699D01*
X136420000Y-87051310D01*
X136420000Y-86910750D01*
X136261250Y-86752000D01*
X135137000Y-86752000D01*
X134883000Y-86752000D01*
X133758750Y-86752000D01*
X133600000Y-86910750D01*
X133157275Y-86910750D01*
X133268327Y-86799698D01*
X133365000Y-86566309D01*
X133365000Y-86498750D01*
X133206250Y-86340000D01*
X132557000Y-86340000D01*
X132303000Y-86340000D01*
X131653750Y-86340000D01*
X131495000Y-86498750D01*
X131050619Y-86498750D01*
X131157401Y-86427401D01*
X131469802Y-86115000D01*
X131628750Y-86115000D01*
X131653750Y-86140000D01*
X131895734Y-86140000D01*
X132130000Y-86187440D01*
X132730000Y-86187440D01*
X132965317Y-86143162D01*
X132970231Y-86140000D01*
X133206250Y-86140000D01*
X133231250Y-86115000D01*
X133634666Y-86115000D01*
X133600000Y-86198690D01*
X133600000Y-86339250D01*
X133758750Y-86498000D01*
X134883000Y-86498000D01*
X134883000Y-86478000D01*
X135137000Y-86478000D01*
X135137000Y-86498000D01*
X136261250Y-86498000D01*
X136406870Y-86352380D01*
X137680000Y-86365877D01*
X137680000Y-88825000D01*
X137625750Y-88825000D01*
X137467000Y-88983750D01*
X137467000Y-89585000D01*
X137487000Y-89585000D01*
X137487000Y-89835000D01*
X137467000Y-89835000D01*
X137467000Y-90436250D01*
X137625750Y-90595000D01*
X137766309Y-90595000D01*
X137877283Y-90549033D01*
X137888110Y-90556431D01*
X138140000Y-90607440D01*
X138740000Y-90607440D01*
X138975317Y-90563162D01*
X139191441Y-90424090D01*
X139336431Y-90211890D01*
X139387440Y-89960000D01*
X139387440Y-89460000D01*
X139343162Y-89224683D01*
X139204090Y-89008559D01*
X139200000Y-89005764D01*
X139200000Y-87396317D01*
X139383110Y-87521431D01*
X139635000Y-87572440D01*
X141185000Y-87572440D01*
X141420317Y-87528162D01*
X141543861Y-87448663D01*
X142405405Y-88310207D01*
X142179946Y-88460853D01*
X141858039Y-88942622D01*
X141745000Y-89510907D01*
X141745000Y-89569093D01*
X141858039Y-90137378D01*
X142179946Y-90619147D01*
X142661715Y-90941054D01*
X143230000Y-91054093D01*
X143798285Y-90941054D01*
X144280054Y-90619147D01*
X144307850Y-90577548D01*
X144316838Y-90625317D01*
X144455910Y-90841441D01*
X144668110Y-90986431D01*
X144920000Y-91037440D01*
X146620000Y-91037440D01*
X146855317Y-90993162D01*
X147071441Y-90854090D01*
X147216431Y-90641890D01*
X147267440Y-90390000D01*
X147267440Y-88690000D01*
X147223162Y-88454683D01*
X147084090Y-88238559D01*
X146871890Y-88093569D01*
X146620000Y-88042560D01*
X146530000Y-88042560D01*
X146530000Y-87330000D01*
X146472148Y-87039161D01*
X146307401Y-86792599D01*
X144332401Y-84817599D01*
X144085839Y-84652852D01*
X143795000Y-84595000D01*
X143159802Y-84595000D01*
X143269052Y-84485750D01*
X144935000Y-84485750D01*
X144935000Y-85176310D01*
X145031673Y-85409699D01*
X145210302Y-85588327D01*
X145443691Y-85685000D01*
X146134250Y-85685000D01*
X146293000Y-85526250D01*
X146293000Y-84327000D01*
X146547000Y-84327000D01*
X146547000Y-85526250D01*
X146705750Y-85685000D01*
X147396309Y-85685000D01*
X147629698Y-85588327D01*
X147808327Y-85409699D01*
X147905000Y-85176310D01*
X147905000Y-84485750D01*
X147746250Y-84327000D01*
X146547000Y-84327000D01*
X146293000Y-84327000D01*
X145093750Y-84327000D01*
X144935000Y-84485750D01*
X143269052Y-84485750D01*
X145222250Y-82532552D01*
X145340853Y-82710054D01*
X145384777Y-82739403D01*
X145210302Y-82811673D01*
X145031673Y-82990301D01*
X144935000Y-83223690D01*
X144935000Y-83914250D01*
X145093750Y-84073000D01*
X146293000Y-84073000D01*
X146293000Y-84053000D01*
X146547000Y-84053000D01*
X146547000Y-84073000D01*
X147746250Y-84073000D01*
X147905000Y-83914250D01*
X147905000Y-83223690D01*
X147808327Y-82990301D01*
X147629698Y-82811673D01*
X147455223Y-82739403D01*
X147499147Y-82710054D01*
X147821054Y-82228285D01*
X147934093Y-81660000D01*
X147821054Y-81091715D01*
X147499147Y-80609946D01*
X147017378Y-80288039D01*
X146449093Y-80175000D01*
X146390907Y-80175000D01*
X145822622Y-80288039D01*
X145340853Y-80609946D01*
X145147046Y-80900000D01*
X145020000Y-80900000D01*
X144729161Y-80957852D01*
X144482599Y-81122599D01*
X142280198Y-83325000D01*
X141789914Y-83325000D01*
X141832440Y-83115000D01*
X141832440Y-82515000D01*
X141788162Y-82279683D01*
X141717092Y-82169237D01*
X146219319Y-79236413D01*
X146266994Y-79179410D01*
X146277000Y-79130000D01*
X146277000Y-76080000D01*
X146268315Y-76033841D01*
X146241035Y-75991447D01*
X146199410Y-75963006D01*
X146150000Y-75953000D01*
X132600000Y-75953000D01*
X132553841Y-75961685D01*
X132511447Y-75988965D01*
X132483006Y-76030590D01*
X132473000Y-76080000D01*
X132473000Y-82030000D01*
X132482334Y-82077789D01*
X132510197Y-82119803D01*
X132770572Y-82380178D01*
X132637000Y-82513750D01*
X132637000Y-83090000D01*
X133286250Y-83090000D01*
X133383322Y-82992928D01*
X133410197Y-83019803D01*
X133450590Y-83046994D01*
X133500000Y-83057000D01*
X133587560Y-83057000D01*
X133587560Y-83115000D01*
X133627074Y-83325000D01*
X133321250Y-83325000D01*
X133286250Y-83290000D01*
X133044266Y-83290000D01*
X132810000Y-83242560D01*
X132210000Y-83242560D01*
X131974683Y-83286838D01*
X131969769Y-83290000D01*
X131733750Y-83290000D01*
X131698750Y-83325000D01*
X131439802Y-83325000D01*
X130978493Y-82863691D01*
X131575000Y-82863691D01*
X131575000Y-82931250D01*
X131733750Y-83090000D01*
X132383000Y-83090000D01*
X132383000Y-82513750D01*
X132224250Y-82355000D01*
X132083690Y-82355000D01*
X131850301Y-82451673D01*
X131671673Y-82630302D01*
X131575000Y-82863691D01*
X130978493Y-82863691D01*
X130927401Y-82812599D01*
X130680839Y-82647852D01*
X130390000Y-82590000D01*
X129577440Y-82590000D01*
X129577440Y-82500000D01*
X129533162Y-82264683D01*
X129394090Y-82048559D01*
X129181890Y-81903569D01*
X128930000Y-81852560D01*
X127230000Y-81852560D01*
X126994683Y-81896838D01*
X126830000Y-82002809D01*
X126830000Y-75250000D01*
X150030000Y-75250000D01*
X150030000Y-91740000D01*
X150030000Y-91740000D01*
G37*
X150030000Y-91740000D02*
X126830000Y-91740000D01*
X126830000Y-89993750D01*
X136405000Y-89993750D01*
X136405000Y-90086310D01*
X136501673Y-90319699D01*
X136680302Y-90498327D01*
X136913691Y-90595000D01*
X137054250Y-90595000D01*
X137213000Y-90436250D01*
X137213000Y-89835000D01*
X136563750Y-89835000D01*
X136405000Y-89993750D01*
X126830000Y-89993750D01*
X126830000Y-89333690D01*
X136405000Y-89333690D01*
X136405000Y-89426250D01*
X136563750Y-89585000D01*
X137213000Y-89585000D01*
X137213000Y-88983750D01*
X137054250Y-88825000D01*
X136913691Y-88825000D01*
X136680302Y-88921673D01*
X136501673Y-89100301D01*
X136405000Y-89333690D01*
X126830000Y-89333690D01*
X126830000Y-86684354D01*
X127000853Y-86940054D01*
X127482622Y-87261961D01*
X128050907Y-87375000D01*
X128109093Y-87375000D01*
X128677378Y-87261961D01*
X129159147Y-86940054D01*
X129352954Y-86650000D01*
X130620000Y-86650000D01*
X130910839Y-86592148D01*
X131050619Y-86498750D01*
X131495000Y-86498750D01*
X131495000Y-86566309D01*
X131591673Y-86799698D01*
X131770301Y-86978327D01*
X132003690Y-87075000D01*
X132144250Y-87075000D01*
X132303000Y-86916250D01*
X132303000Y-86340000D01*
X132557000Y-86340000D01*
X132557000Y-86916250D01*
X132715750Y-87075000D01*
X132856310Y-87075000D01*
X133089699Y-86978327D01*
X133157275Y-86910750D01*
X133600000Y-86910750D01*
X133600000Y-87051310D01*
X133696673Y-87284699D01*
X133875302Y-87463327D01*
X134108691Y-87560000D01*
X134724250Y-87560000D01*
X134883000Y-87401250D01*
X134883000Y-86752000D01*
X135137000Y-86752000D01*
X135137000Y-87401250D01*
X135295750Y-87560000D01*
X135911309Y-87560000D01*
X136144698Y-87463327D01*
X136323327Y-87284699D01*
X136420000Y-87051310D01*
X136420000Y-86910750D01*
X136261250Y-86752000D01*
X135137000Y-86752000D01*
X134883000Y-86752000D01*
X133758750Y-86752000D01*
X133600000Y-86910750D01*
X133157275Y-86910750D01*
X133268327Y-86799698D01*
X133365000Y-86566309D01*
X133365000Y-86498750D01*
X133206250Y-86340000D01*
X132557000Y-86340000D01*
X132303000Y-86340000D01*
X131653750Y-86340000D01*
X131495000Y-86498750D01*
X131050619Y-86498750D01*
X131157401Y-86427401D01*
X131469802Y-86115000D01*
X131628750Y-86115000D01*
X131653750Y-86140000D01*
X131895734Y-86140000D01*
X132130000Y-86187440D01*
X132730000Y-86187440D01*
X132965317Y-86143162D01*
X132970231Y-86140000D01*
X133206250Y-86140000D01*
X133231250Y-86115000D01*
X133634666Y-86115000D01*
X133600000Y-86198690D01*
X133600000Y-86339250D01*
X133758750Y-86498000D01*
X134883000Y-86498000D01*
X134883000Y-86478000D01*
X135137000Y-86478000D01*
X135137000Y-86498000D01*
X136261250Y-86498000D01*
X136406870Y-86352380D01*
X137680000Y-86365877D01*
X137680000Y-88825000D01*
X137625750Y-88825000D01*
X137467000Y-88983750D01*
X137467000Y-89585000D01*
X137487000Y-89585000D01*
X137487000Y-89835000D01*
X137467000Y-89835000D01*
X137467000Y-90436250D01*
X137625750Y-90595000D01*
X137766309Y-90595000D01*
X137877283Y-90549033D01*
X137888110Y-90556431D01*
X138140000Y-90607440D01*
X138740000Y-90607440D01*
X138975317Y-90563162D01*
X139191441Y-90424090D01*
X139336431Y-90211890D01*
X139387440Y-89960000D01*
X139387440Y-89460000D01*
X139343162Y-89224683D01*
X139204090Y-89008559D01*
X139200000Y-89005764D01*
X139200000Y-87396317D01*
X139383110Y-87521431D01*
X139635000Y-87572440D01*
X141185000Y-87572440D01*
X141420317Y-87528162D01*
X141543861Y-87448663D01*
X142405405Y-88310207D01*
X142179946Y-88460853D01*
X141858039Y-88942622D01*
X141745000Y-89510907D01*
X141745000Y-89569093D01*
X141858039Y-90137378D01*
X142179946Y-90619147D01*
X142661715Y-90941054D01*
X143230000Y-91054093D01*
X143798285Y-90941054D01*
X144280054Y-90619147D01*
X144307850Y-90577548D01*
X144316838Y-90625317D01*
X144455910Y-90841441D01*
X144668110Y-90986431D01*
X144920000Y-91037440D01*
X146620000Y-91037440D01*
X146855317Y-90993162D01*
X147071441Y-90854090D01*
X147216431Y-90641890D01*
X147267440Y-90390000D01*
X147267440Y-88690000D01*
X147223162Y-88454683D01*
X147084090Y-88238559D01*
X146871890Y-88093569D01*
X146620000Y-88042560D01*
X146530000Y-88042560D01*
X146530000Y-87330000D01*
X146472148Y-87039161D01*
X146307401Y-86792599D01*
X144332401Y-84817599D01*
X144085839Y-84652852D01*
X143795000Y-84595000D01*
X143159802Y-84595000D01*
X143269052Y-84485750D01*
X144935000Y-84485750D01*
X144935000Y-85176310D01*
X145031673Y-85409699D01*
X145210302Y-85588327D01*
X145443691Y-85685000D01*
X146134250Y-85685000D01*
X146293000Y-85526250D01*
X146293000Y-84327000D01*
X146547000Y-84327000D01*
X146547000Y-85526250D01*
X146705750Y-85685000D01*
X147396309Y-85685000D01*
X147629698Y-85588327D01*
X147808327Y-85409699D01*
X147905000Y-85176310D01*
X147905000Y-84485750D01*
X147746250Y-84327000D01*
X146547000Y-84327000D01*
X146293000Y-84327000D01*
X145093750Y-84327000D01*
X144935000Y-84485750D01*
X143269052Y-84485750D01*
X145222250Y-82532552D01*
X145340853Y-82710054D01*
X145384777Y-82739403D01*
X145210302Y-82811673D01*
X145031673Y-82990301D01*
X144935000Y-83223690D01*
X144935000Y-83914250D01*
X145093750Y-84073000D01*
X146293000Y-84073000D01*
X146293000Y-84053000D01*
X146547000Y-84053000D01*
X146547000Y-84073000D01*
X147746250Y-84073000D01*
X147905000Y-83914250D01*
X147905000Y-83223690D01*
X147808327Y-82990301D01*
X147629698Y-82811673D01*
X147455223Y-82739403D01*
X147499147Y-82710054D01*
X147821054Y-82228285D01*
X147934093Y-81660000D01*
X147821054Y-81091715D01*
X147499147Y-80609946D01*
X147017378Y-80288039D01*
X146449093Y-80175000D01*
X146390907Y-80175000D01*
X145822622Y-80288039D01*
X145340853Y-80609946D01*
X145147046Y-80900000D01*
X145020000Y-80900000D01*
X144729161Y-80957852D01*
X144482599Y-81122599D01*
X142280198Y-83325000D01*
X141789914Y-83325000D01*
X141832440Y-83115000D01*
X141832440Y-82515000D01*
X141788162Y-82279683D01*
X141717092Y-82169237D01*
X146219319Y-79236413D01*
X146266994Y-79179410D01*
X146277000Y-79130000D01*
X146277000Y-76080000D01*
X146268315Y-76033841D01*
X146241035Y-75991447D01*
X146199410Y-75963006D01*
X146150000Y-75953000D01*
X132600000Y-75953000D01*
X132553841Y-75961685D01*
X132511447Y-75988965D01*
X132483006Y-76030590D01*
X132473000Y-76080000D01*
X132473000Y-82030000D01*
X132482334Y-82077789D01*
X132510197Y-82119803D01*
X132770572Y-82380178D01*
X132637000Y-82513750D01*
X132637000Y-83090000D01*
X133286250Y-83090000D01*
X133383322Y-82992928D01*
X133410197Y-83019803D01*
X133450590Y-83046994D01*
X133500000Y-83057000D01*
X133587560Y-83057000D01*
X133587560Y-83115000D01*
X133627074Y-83325000D01*
X133321250Y-83325000D01*
X133286250Y-83290000D01*
X133044266Y-83290000D01*
X132810000Y-83242560D01*
X132210000Y-83242560D01*
X131974683Y-83286838D01*
X131969769Y-83290000D01*
X131733750Y-83290000D01*
X131698750Y-83325000D01*
X131439802Y-83325000D01*
X130978493Y-82863691D01*
X131575000Y-82863691D01*
X131575000Y-82931250D01*
X131733750Y-83090000D01*
X132383000Y-83090000D01*
X132383000Y-82513750D01*
X132224250Y-82355000D01*
X132083690Y-82355000D01*
X131850301Y-82451673D01*
X131671673Y-82630302D01*
X131575000Y-82863691D01*
X130978493Y-82863691D01*
X130927401Y-82812599D01*
X130680839Y-82647852D01*
X130390000Y-82590000D01*
X129577440Y-82590000D01*
X129577440Y-82500000D01*
X129533162Y-82264683D01*
X129394090Y-82048559D01*
X129181890Y-81903569D01*
X128930000Y-81852560D01*
X127230000Y-81852560D01*
X126994683Y-81896838D01*
X126830000Y-82002809D01*
X126830000Y-75250000D01*
X150030000Y-75250000D01*
X150030000Y-91740000D01*
M02*
