G04 #@! TF.FileFunction,Legend,Bot*
%FSLAX46Y46*%
G04 Gerber Fmt 4.6, Leading zero omitted, Abs format (unit mm)*
G04 Created by KiCad (PCBNEW 4.0.6) date 11/05/17 19:48:39*
%MOMM*%
%LPD*%
G01*
G04 APERTURE LIST*
%ADD10C,0.100000*%
%ADD11C,0.300000*%
G04 APERTURE END LIST*
D10*
D11*
X144002857Y-75528571D02*
X143145714Y-75528571D01*
X143574285Y-77028571D02*
X143574285Y-75528571D01*
X142645714Y-77028571D02*
X142645714Y-75528571D01*
X141931428Y-76457143D02*
X140788571Y-76457143D01*
X140074285Y-77028571D02*
X140074285Y-75528571D01*
X139359999Y-77028571D02*
X139359999Y-75528571D01*
X138502856Y-77028571D01*
X138502856Y-75528571D01*
X137859999Y-76600000D02*
X137145713Y-76600000D01*
X138002856Y-77028571D02*
X137502856Y-75528571D01*
X137002856Y-77028571D01*
X136288570Y-76171429D02*
X136431428Y-76100000D01*
X136502856Y-76028571D01*
X136574285Y-75885714D01*
X136574285Y-75814286D01*
X136502856Y-75671429D01*
X136431428Y-75600000D01*
X136288570Y-75528571D01*
X136002856Y-75528571D01*
X135859999Y-75600000D01*
X135788570Y-75671429D01*
X135717142Y-75814286D01*
X135717142Y-75885714D01*
X135788570Y-76028571D01*
X135859999Y-76100000D01*
X136002856Y-76171429D01*
X136288570Y-76171429D01*
X136431428Y-76242857D01*
X136502856Y-76314286D01*
X136574285Y-76457143D01*
X136574285Y-76742857D01*
X136502856Y-76885714D01*
X136431428Y-76957143D01*
X136288570Y-77028571D01*
X136002856Y-77028571D01*
X135859999Y-76957143D01*
X135788570Y-76885714D01*
X135717142Y-76742857D01*
X135717142Y-76457143D01*
X135788570Y-76314286D01*
X135859999Y-76242857D01*
X136002856Y-76171429D01*
X135145714Y-75671429D02*
X135074285Y-75600000D01*
X134931428Y-75528571D01*
X134574285Y-75528571D01*
X134431428Y-75600000D01*
X134359999Y-75671429D01*
X134288571Y-75814286D01*
X134288571Y-75957143D01*
X134359999Y-76171429D01*
X135217142Y-77028571D01*
X134288571Y-77028571D01*
X133431428Y-76171429D02*
X133574286Y-76100000D01*
X133645714Y-76028571D01*
X133717143Y-75885714D01*
X133717143Y-75814286D01*
X133645714Y-75671429D01*
X133574286Y-75600000D01*
X133431428Y-75528571D01*
X133145714Y-75528571D01*
X133002857Y-75600000D01*
X132931428Y-75671429D01*
X132860000Y-75814286D01*
X132860000Y-75885714D01*
X132931428Y-76028571D01*
X133002857Y-76100000D01*
X133145714Y-76171429D01*
X133431428Y-76171429D01*
X133574286Y-76242857D01*
X133645714Y-76314286D01*
X133717143Y-76457143D01*
X133717143Y-76742857D01*
X133645714Y-76885714D01*
X133574286Y-76957143D01*
X133431428Y-77028571D01*
X133145714Y-77028571D01*
X133002857Y-76957143D01*
X132931428Y-76885714D01*
X132860000Y-76742857D01*
X132860000Y-76457143D01*
X132931428Y-76314286D01*
X133002857Y-76242857D01*
X133145714Y-76171429D01*
X147824286Y-79507143D02*
X147610000Y-79578571D01*
X147252857Y-79578571D01*
X147110000Y-79507143D01*
X147038571Y-79435714D01*
X146967143Y-79292857D01*
X146967143Y-79150000D01*
X147038571Y-79007143D01*
X147110000Y-78935714D01*
X147252857Y-78864286D01*
X147538571Y-78792857D01*
X147681429Y-78721429D01*
X147752857Y-78650000D01*
X147824286Y-78507143D01*
X147824286Y-78364286D01*
X147752857Y-78221429D01*
X147681429Y-78150000D01*
X147538571Y-78078571D01*
X147181429Y-78078571D01*
X146967143Y-78150000D01*
X146038572Y-78078571D02*
X145752858Y-78078571D01*
X145610000Y-78150000D01*
X145467143Y-78292857D01*
X145395715Y-78578571D01*
X145395715Y-79078571D01*
X145467143Y-79364286D01*
X145610000Y-79507143D01*
X145752858Y-79578571D01*
X146038572Y-79578571D01*
X146181429Y-79507143D01*
X146324286Y-79364286D01*
X146395715Y-79078571D01*
X146395715Y-78578571D01*
X146324286Y-78292857D01*
X146181429Y-78150000D01*
X146038572Y-78078571D01*
X144752857Y-79578571D02*
X144752857Y-78078571D01*
X143181428Y-79435714D02*
X143252857Y-79507143D01*
X143467143Y-79578571D01*
X143610000Y-79578571D01*
X143824285Y-79507143D01*
X143967143Y-79364286D01*
X144038571Y-79221429D01*
X144110000Y-78935714D01*
X144110000Y-78721429D01*
X144038571Y-78435714D01*
X143967143Y-78292857D01*
X143824285Y-78150000D01*
X143610000Y-78078571D01*
X143467143Y-78078571D01*
X143252857Y-78150000D01*
X143181428Y-78221429D01*
X142538571Y-79007143D02*
X141395714Y-79007143D01*
X140467142Y-78721429D02*
X140610000Y-78650000D01*
X140681428Y-78578571D01*
X140752857Y-78435714D01*
X140752857Y-78364286D01*
X140681428Y-78221429D01*
X140610000Y-78150000D01*
X140467142Y-78078571D01*
X140181428Y-78078571D01*
X140038571Y-78150000D01*
X139967142Y-78221429D01*
X139895714Y-78364286D01*
X139895714Y-78435714D01*
X139967142Y-78578571D01*
X140038571Y-78650000D01*
X140181428Y-78721429D01*
X140467142Y-78721429D01*
X140610000Y-78792857D01*
X140681428Y-78864286D01*
X140752857Y-79007143D01*
X140752857Y-79292857D01*
X140681428Y-79435714D01*
X140610000Y-79507143D01*
X140467142Y-79578571D01*
X140181428Y-79578571D01*
X140038571Y-79507143D01*
X139967142Y-79435714D01*
X139895714Y-79292857D01*
X139895714Y-79007143D01*
X139967142Y-78864286D01*
X140038571Y-78792857D01*
X140181428Y-78721429D01*
X137610000Y-78792857D02*
X137395714Y-78864286D01*
X137324286Y-78935714D01*
X137252857Y-79078571D01*
X137252857Y-79292857D01*
X137324286Y-79435714D01*
X137395714Y-79507143D01*
X137538572Y-79578571D01*
X138110000Y-79578571D01*
X138110000Y-78078571D01*
X137610000Y-78078571D01*
X137467143Y-78150000D01*
X137395714Y-78221429D01*
X137324286Y-78364286D01*
X137324286Y-78507143D01*
X137395714Y-78650000D01*
X137467143Y-78721429D01*
X137610000Y-78792857D01*
X138110000Y-78792857D01*
X136610000Y-79578571D02*
X136610000Y-78578571D01*
X136610000Y-78864286D02*
X136538572Y-78721429D01*
X136467143Y-78650000D01*
X136324286Y-78578571D01*
X136181429Y-78578571D01*
X135110001Y-79507143D02*
X135252858Y-79578571D01*
X135538572Y-79578571D01*
X135681429Y-79507143D01*
X135752858Y-79364286D01*
X135752858Y-78792857D01*
X135681429Y-78650000D01*
X135538572Y-78578571D01*
X135252858Y-78578571D01*
X135110001Y-78650000D01*
X135038572Y-78792857D01*
X135038572Y-78935714D01*
X135752858Y-79078571D01*
X133752858Y-79578571D02*
X133752858Y-78792857D01*
X133824287Y-78650000D01*
X133967144Y-78578571D01*
X134252858Y-78578571D01*
X134395715Y-78650000D01*
X133752858Y-79507143D02*
X133895715Y-79578571D01*
X134252858Y-79578571D01*
X134395715Y-79507143D01*
X134467144Y-79364286D01*
X134467144Y-79221429D01*
X134395715Y-79078571D01*
X134252858Y-79007143D01*
X133895715Y-79007143D01*
X133752858Y-78935714D01*
X133038572Y-79578571D02*
X133038572Y-78078571D01*
X132895715Y-79007143D02*
X132467144Y-79578571D01*
X132467144Y-78578571D02*
X133038572Y-79150000D01*
X131610000Y-79578571D02*
X131752858Y-79507143D01*
X131824286Y-79435714D01*
X131895715Y-79292857D01*
X131895715Y-78864286D01*
X131824286Y-78721429D01*
X131752858Y-78650000D01*
X131610000Y-78578571D01*
X131395715Y-78578571D01*
X131252858Y-78650000D01*
X131181429Y-78721429D01*
X131110000Y-78864286D01*
X131110000Y-79292857D01*
X131181429Y-79435714D01*
X131252858Y-79507143D01*
X131395715Y-79578571D01*
X131610000Y-79578571D01*
X129824286Y-78578571D02*
X129824286Y-79578571D01*
X130467143Y-78578571D02*
X130467143Y-79364286D01*
X130395715Y-79507143D01*
X130252857Y-79578571D01*
X130038572Y-79578571D01*
X129895715Y-79507143D01*
X129824286Y-79435714D01*
X129324286Y-78578571D02*
X128752857Y-78578571D01*
X129110000Y-78078571D02*
X129110000Y-79364286D01*
X129038572Y-79507143D01*
X128895714Y-79578571D01*
X128752857Y-79578571D01*
X144252857Y-82128571D02*
X144252857Y-80628571D01*
X143752857Y-81700000D01*
X143252857Y-80628571D01*
X143252857Y-82128571D01*
X141895714Y-81128571D02*
X141895714Y-82128571D01*
X142538571Y-81128571D02*
X142538571Y-81914286D01*
X142467143Y-82057143D01*
X142324285Y-82128571D01*
X142110000Y-82128571D01*
X141967143Y-82057143D01*
X141895714Y-81985714D01*
X141252857Y-82057143D02*
X141110000Y-82128571D01*
X140824285Y-82128571D01*
X140681428Y-82057143D01*
X140610000Y-81914286D01*
X140610000Y-81842857D01*
X140681428Y-81700000D01*
X140824285Y-81628571D01*
X141038571Y-81628571D01*
X141181428Y-81557143D01*
X141252857Y-81414286D01*
X141252857Y-81342857D01*
X141181428Y-81200000D01*
X141038571Y-81128571D01*
X140824285Y-81128571D01*
X140681428Y-81200000D01*
X139324285Y-82128571D02*
X139324285Y-81342857D01*
X139395714Y-81200000D01*
X139538571Y-81128571D01*
X139824285Y-81128571D01*
X139967142Y-81200000D01*
X139324285Y-82057143D02*
X139467142Y-82128571D01*
X139824285Y-82128571D01*
X139967142Y-82057143D01*
X140038571Y-81914286D01*
X140038571Y-81771429D01*
X139967142Y-81628571D01*
X139824285Y-81557143D01*
X139467142Y-81557143D01*
X139324285Y-81485714D01*
X136538571Y-81414286D02*
X136609999Y-81342857D01*
X136752856Y-81271429D01*
X136895714Y-81271429D01*
X137038571Y-81342857D01*
X137109999Y-81414286D01*
X137181428Y-81557143D01*
X137181428Y-81700000D01*
X137109999Y-81842857D01*
X137038571Y-81914286D01*
X136895714Y-81985714D01*
X136752856Y-81985714D01*
X136609999Y-81914286D01*
X136538571Y-81842857D01*
X136538571Y-81271429D02*
X136538571Y-81842857D01*
X136467142Y-81914286D01*
X136395714Y-81914286D01*
X136252856Y-81842857D01*
X136181428Y-81700000D01*
X136181428Y-81342857D01*
X136324285Y-81128571D01*
X136538571Y-80985714D01*
X136824285Y-80914286D01*
X137109999Y-80985714D01*
X137324285Y-81128571D01*
X137467142Y-81342857D01*
X137538571Y-81628571D01*
X137467142Y-81914286D01*
X137324285Y-82128571D01*
X137109999Y-82271429D01*
X136824285Y-82342857D01*
X136538571Y-82271429D01*
X136324285Y-82128571D01*
X133610000Y-80700000D02*
X133752857Y-80628571D01*
X133967143Y-80628571D01*
X134181428Y-80700000D01*
X134324286Y-80842857D01*
X134395714Y-80985714D01*
X134467143Y-81271429D01*
X134467143Y-81485714D01*
X134395714Y-81771429D01*
X134324286Y-81914286D01*
X134181428Y-82057143D01*
X133967143Y-82128571D01*
X133824286Y-82128571D01*
X133610000Y-82057143D01*
X133538571Y-81985714D01*
X133538571Y-81485714D01*
X133824286Y-81485714D01*
X133110000Y-80628571D02*
X132252857Y-80628571D01*
X132681428Y-82128571D02*
X132681428Y-80628571D01*
M02*
